<svg width="30" height="34.89" viewBox="0 0 105.3 122.5"><path d="M72.3 64.5H63v8.1h9.6c3.6 0 5.7-1.3 5.7-4v-.1c0-2.5-1.8-4-6-4z"></path><path d="M52.7 0L0 30.6v61.2l52.7 30.6 52.7-30.6V30.6L52.7 0zm-4.6 68.8c0 7.3-5.6 11.5-13.5 11.5-5.6 0-11.2-2-15.6-5.9l4.8-5.8c3.3 2.8 6.8 4.5 11 4.5 3.3 0 5.3-1.3 5.3-3.5v-.1c0-2.1-1.3-3.1-7.4-4.7-7.4-1.9-12.2-4-12.2-11.3v-.1c0-6.7 5.4-11.2 12.9-11.2 5.4 0 9.9 1.7 13.7 4.7L42.9 53c-3.3-2.3-6.5-3.6-9.6-3.6-3.1 0-4.7 1.4-4.7 3.2v.1c0 2.4 1.6 3.2 7.9 4.9 7.5 2 11.7 4.7 11.7 11.1v.1zm38.2.8c0 6.8-5.5 10.2-13.8 10.2H55.1v-37h17.1c4.2 0 7.5 1.2 9.6 3.3 1.7 1.7 2.5 3.8 2.5 6.3v.1c0 4.2-2.2 6.5-4.8 8 4.3 1.6 6.9 4.1 6.9 9.1z"></path><path d="M76.3 53.8v-.1c0-2.4-1.9-3.8-5.3-3.8h-8v7.8h7.5c3.5 0 5.8-1.2 5.8-3.9z"></path></svg>
